# xmcd
#
# Track frame offsets: 
#        150
#        15943
#        37477
#        61299
#        76392
#        116396
#        131791
#        155592
#        168509
#        188211
#
# Disc length: 2834 seconds
#
# Revision: 0
# Processed by: cddbd v1.5.2PL0 Copyright (c) Steve Scherf et al.
# Submitted via: ExactAudioCopy v0.95a4
#
DISCID=820b100a
DTITLE=Sam Amidon - Lily-O
DYEAR=2014
DGENRE=Folk
TTITLE0=Walkin' Boss
TTITLE1=Down The Line
TTITLE2=Blue Mountains
TTITLE3=Part Do This, Part Do That
TTITLE4=Lily-O
TTITLE5=Groundhog Variations
TTITLE6=Won't Turn Back
TTITLE7=Maid Lamenting
TTITLE8=Your Lone Journey
TTITLE9=Devotion
EXTD=
EXTT0=
EXTT1=
EXTT2=
EXTT3=
EXTT4=
EXTT5=
EXTT6=
EXTT7=
EXTT8=
EXTT9=
PLAYORDER=
